<?xml version="1.0" encoding="UTF-8" standalone="no"?>
<!DOCTYPE svg PUBLIC "-//W3C//DTD SVG 1.1//EN"
 "http://www.w3.org/Graphics/SVG/1.1/DTD/svg11.dtd">
<!-- Generated by graphviz version 2.49.4~dev.20211117.1626 (20211117.1626)
 -->
<!-- Title: amr_graph Pages: 1 -->
<svg width="805pt" height="740pt"
 viewBox="0.00 0.00 804.85 740.00" xmlns="http://www.w3.org/2000/svg" xmlns:xlink="http://www.w3.org/1999/xlink">
<g id="graph0" class="graph" transform="scale(1 1) rotate(0) translate(4 736)">
<title>amr_graph</title>
<polygon fill="white" stroke="transparent" points="-4,4 -4,-736 800.85,-736 800.85,4 -4,4"/>
<!-- 0 -->
<g id="node1" class="node">
<title>0</title>
<g id="a_node1"><a xlink:title="vertex: 6&#10;ig vertex: 0&#10;type: doc&#10;I saw Joe&#39;s dog, which was running in the garden. The dog&#10;was chasing a cat.">
<polygon fill="#dcdcdc" stroke="black" points="223,-732 169,-732 169,-696 223,-696 223,-732"/>
<text text-anchor="middle" x="196" y="-710.3" font-family="Times,serif" font-size="14.00">source</text>
</a>
</g>
</g>
<!-- 1 -->
<g id="node2" class="node">
<title>1</title>
<g id="a_node2"><a xlink:title="vertex: 7&#10;ig vertex: 1&#10;type: sentence&#10;I saw Joe&#39;s dog, which was running in the garden.">
<polygon fill="#dda0dd" stroke="black" points="173.5,-616 74.5,-616 74.5,-580 173.5,-580 173.5,-616"/>
<text text-anchor="middle" x="124" y="-594.3" font-family="Times,serif" font-size="14.00">I saw Joe&#39;s [...]</text>
</a>
</g>
</g>
<!-- 0&#45;&gt;1 -->
<g id="edge1" class="edge">
<title>0&#45;&gt;1</title>
<g id="a_edge1"><a xlink:title="edge: 8&#10;ig edge: 0&#10;desc: sent[0]&#10;capacity: ∞&#10;flow: 0.47">
<path fill="none" stroke="#1a0086" stroke-width="7" d="M168.97,-696.23C159.89,-689.4 150.43,-680.8 144,-671 135.26,-657.69 130.3,-640.6 127.51,-626.41"/>
<polygon fill="#1a0086" stroke="#1a0086" stroke-width="7" points="133.49,-625.05 125.77,-616.23 121.42,-627.12 133.49,-625.05"/>
</a>
</g>
<text text-anchor="middle" x="167.5" y="-659.8" font-family="Times,serif" font-size="14.00">sent[0]</text>
<text text-anchor="middle" x="167.5" y="-644.8" font-family="Times,serif" font-size="14.00">(∞/0.47)</text>
</g>
<!-- 10 -->
<g id="node11" class="node">
<title>10</title>
<g id="a_node11"><a xlink:title="vertex: 33&#10;ig vertex: 10&#10;type: sentence&#10;The dog was chasing a cat.">
<polygon fill="#dda0dd" stroke="black" points="334,-616 224,-616 224,-580 334,-580 334,-616"/>
<text text-anchor="middle" x="279" y="-594.3" font-family="Times,serif" font-size="14.00">The dog was [...]</text>
</a>
</g>
</g>
<!-- 0&#45;&gt;10 -->
<g id="edge10" class="edge">
<title>0&#45;&gt;10</title>
<g id="a_edge10"><a xlink:title="edge: 34&#10;ig edge: 9&#10;desc: sent[1]&#10;capacity: ∞&#10;flow: 0.89">
<path fill="none" stroke="#1a0086" stroke-width="7" d="M208.61,-695.69C222.46,-676.66 244.84,-645.92 260.64,-624.22"/>
<polygon fill="#1a0086" stroke="#1a0086" stroke-width="7" points="265.61,-627.79 266.55,-616.1 255.71,-620.58 265.61,-627.79"/>
</a>
</g>
<text text-anchor="middle" x="271.5" y="-659.8" font-family="Times,serif" font-size="14.00">sent[1]</text>
<text text-anchor="middle" x="271.5" y="-644.8" font-family="Times,serif" font-size="14.00">(∞/0.89)</text>
</g>
<!-- 2 -->
<g id="node3" class="node">
<title>2</title>
<g id="a_node3"><a xlink:title="vertex: 10&#10;ig vertex: 2&#10;type: concept&#10;norm: saw&#10;pos_: VERB&#10;tag_: VBD">
<ellipse fill="#dda0dd" stroke="black" cx="124" cy="-482" rx="44.39" ry="18"/>
<text text-anchor="middle" x="124" y="-478.3" font-family="Times,serif" font-size="14.00">s0/see&#45;01</text>
</a>
</g>
</g>
<!-- 1&#45;&gt;2 -->
<g id="edge8" class="edge">
<title>1&#45;&gt;2</title>
<g id="a_edge8"><a xlink:title="edge: 29&#10;ig edge: 7&#10;desc: sent&#45;root[0]&#10;capacity: ∞&#10;flow: 0.46">
<path fill="none" stroke="#2000a1" stroke-width="7" d="M124,-579.69C124,-561.25 124,-531.82 124,-510.26"/>
<polygon fill="#2000a1" stroke="#2000a1" stroke-width="7" points="130.13,-510.1 124,-500.1 117.88,-510.1 130.13,-510.1"/>
</a>
</g>
<text text-anchor="middle" x="156" y="-543.8" font-family="Times,serif" font-size="14.00">sent&#45;root[0]</text>
<text text-anchor="middle" x="156" y="-528.8" font-family="Times,serif" font-size="14.00">(∞/0.46)</text>
</g>
<!-- 3 -->
<g id="node4" class="node">
<title>3</title>
<g id="a_node4"><a xlink:title="vertex: 12&#10;ig vertex: 3&#10;type: concept&#10;norm: I&#10;pos_: PRON&#10;tag_: PRP">
<ellipse fill="#dda0dd" stroke="black" cx="27" cy="-366" rx="27" ry="18"/>
<text text-anchor="middle" x="27" y="-362.3" font-family="Times,serif" font-size="14.00">i0/i</text>
</a>
</g>
</g>
<!-- 2&#45;&gt;3 -->
<g id="edge2" class="edge">
<title>2&#45;&gt;3</title>
<g id="a_edge2"><a xlink:title="edge: 23&#10;ig edge: 1&#10;desc: :ARG0&#10;capacity: ∞&#10;flow: 0">
<path fill="none" stroke="#beaeff" stroke-width="7" d="M105.23,-465.49C96.53,-457.91 86.31,-448.4 78,-439 64.81,-424.07 51.87,-405.74 42.32,-391.3"/>
<polygon fill="#beaeff" stroke="#beaeff" stroke-width="7" points="47.43,-387.93 36.84,-382.89 37.16,-394.61 47.43,-387.93"/>
</a>
</g>
<text text-anchor="middle" x="98" y="-427.8" font-family="Times,serif" font-size="14.00">:ARG0</text>
<text text-anchor="middle" x="98" y="-412.8" font-family="Times,serif" font-size="14.00">(∞/0)</text>
</g>
<!-- 4 -->
<g id="node5" class="node">
<title>4</title>
<g id="a_node5"><a xlink:title="vertex: 14&#10;ig vertex: 4&#10;type: concept&#10;norm: dog&#10;pos_: NOUN&#10;tag_: NN">
<ellipse fill="#dda0dd" stroke="black" cx="139" cy="-366" rx="35.19" ry="18"/>
<text text-anchor="middle" x="139" y="-362.3" font-family="Times,serif" font-size="14.00">d0/dog</text>
</a>
</g>
</g>
<!-- 2&#45;&gt;4 -->
<g id="edge3" class="edge">
<title>2&#45;&gt;4</title>
<g id="a_edge3"><a xlink:title="edge: 24&#10;ig edge: 2&#10;desc: :ARG1&#10;capacity: ∞&#10;flow: 0.61">
<path fill="none" stroke="#1a0086" stroke-width="7" d="M126.28,-463.69C128.7,-445.25 132.58,-415.82 135.41,-394.26"/>
<polygon fill="#1a0086" stroke="#1a0086" stroke-width="7" points="141.52,-394.82 136.75,-384.1 129.37,-393.22 141.52,-394.82"/>
</a>
</g>
<text text-anchor="middle" x="157.5" y="-427.8" font-family="Times,serif" font-size="14.00">:ARG1</text>
<text text-anchor="middle" x="157.5" y="-412.8" font-family="Times,serif" font-size="14.00">(∞/0.61)</text>
</g>
<!-- 5 -->
<g id="node6" class="node">
<title>5</title>
<g id="a_node6"><a xlink:title="vertex: 16&#10;ig vertex: 5&#10;type: concept&#10;description: p0/person">
<ellipse fill="#dda0dd" stroke="black" cx="64" cy="-250" rx="45.49" ry="18"/>
<text text-anchor="middle" x="64" y="-246.3" font-family="Times,serif" font-size="14.00">p0/person</text>
</a>
</g>
</g>
<!-- 4&#45;&gt;5 -->
<g id="edge4" class="edge">
<title>4&#45;&gt;5</title>
<g id="a_edge4"><a xlink:title="edge: 25&#10;ig edge: 3&#10;desc: :poss&#10;capacity: ∞&#10;flow: 0.8">
<path fill="none" stroke="#1a0086" stroke-width="7" d="M128.25,-348.67C115.79,-329.73 95.11,-298.29 80.59,-276.21"/>
<polygon fill="#1a0086" stroke="#1a0086" stroke-width="7" points="85.58,-272.66 74.97,-267.67 75.35,-279.39 85.58,-272.66"/>
</a>
</g>
<text text-anchor="middle" x="131" y="-311.8" font-family="Times,serif" font-size="14.00">:poss</text>
<text text-anchor="middle" x="131" y="-296.8" font-family="Times,serif" font-size="14.00">(∞/0.8)</text>
</g>
<!-- 7 -->
<g id="node8" class="node">
<title>7</title>
<g id="a_node8"><a xlink:title="vertex: 20&#10;ig vertex: 7&#10;type: concept&#10;norm: running&#10;pos_: VERB&#10;tag_: VBG">
<ellipse fill="#dda0dd" stroke="black" cx="204" cy="-250" rx="44.39" ry="18"/>
<text text-anchor="middle" x="204" y="-246.3" font-family="Times,serif" font-size="14.00">r0/run&#45;02</text>
</a>
</g>
</g>
<!-- 4&#45;&gt;7 -->
<g id="edge6" class="edge">
<title>4&#45;&gt;7</title>
<g id="a_edge6"><a xlink:title="edge: 27&#10;ig edge: 5&#10;desc: :ARG0&#45;of&#10;capacity: ∞&#10;flow: 0.32">
<path fill="none" stroke="#3000f1" stroke-width="7" d="M148.59,-348.18C159.34,-329.32 176.91,-298.52 189.37,-276.65"/>
<polygon fill="#3000f1" stroke="#3000f1" stroke-width="7" points="194.74,-279.61 194.37,-267.89 184.1,-273.54 194.74,-279.61"/>
</a>
</g>
<text text-anchor="middle" x="207.5" y="-311.8" font-family="Times,serif" font-size="14.00">:ARG0&#45;of</text>
<text text-anchor="middle" x="207.5" y="-296.8" font-family="Times,serif" font-size="14.00">(∞/0.32)</text>
</g>
<!-- 6 -->
<g id="node7" class="node">
<title>6</title>
<g id="a_node7"><a xlink:title="vertex: 18&#10;ig vertex: 6&#10;type: concept&#10;description: n0/name">
<ellipse fill="#dda0dd" stroke="black" cx="64" cy="-134" rx="41.69" ry="18"/>
<text text-anchor="middle" x="64" y="-130.3" font-family="Times,serif" font-size="14.00">n0/name</text>
</a>
</g>
</g>
<!-- 5&#45;&gt;6 -->
<g id="edge5" class="edge">
<title>5&#45;&gt;6</title>
<g id="a_edge5"><a xlink:title="edge: 26&#10;ig edge: 4&#10;desc: :name&#10;capacity: ∞&#10;flow: 0.8">
<path fill="none" stroke="#1a0086" stroke-width="7" d="M64,-231.69C64,-213.25 64,-183.82 64,-162.26"/>
<polygon fill="#1a0086" stroke="#1a0086" stroke-width="7" points="70.13,-162.1 64,-152.1 57.88,-162.1 70.13,-162.1"/>
</a>
</g>
<text text-anchor="middle" x="84" y="-195.8" font-family="Times,serif" font-size="14.00">:name</text>
<text text-anchor="middle" x="84" y="-180.8" font-family="Times,serif" font-size="14.00">(∞/0.8)</text>
</g>
<!-- 9 -->
<g id="node10" class="node">
<title>9</title>
<g id="a_node10"><a xlink:title="vertex: 31&#10;ig vertex: 9&#10;type: attribute&#10;ent_: PERSON&#10;norm: Joe&#10;pos_: PROPN&#10;tag_: NNP">
<path fill="#dda0dd" stroke="black" d="M79,-36C79,-36 49,-36 49,-36 43,-36 37,-30 37,-24 37,-24 37,-12 37,-12 37,-6 43,0 49,0 49,0 79,0 79,0 85,0 91,-6 91,-12 91,-12 91,-24 91,-24 91,-30 85,-36 79,-36"/>
<text text-anchor="middle" x="64" y="-14.3" font-family="Times,serif" font-size="14.00">Joe</text>
</a>
</g>
</g>
<!-- 6&#45;&gt;9 -->
<g id="edge9" class="edge">
<title>6&#45;&gt;9</title>
<g id="a_edge9"><a xlink:title="edge: 32&#10;ig edge: 8&#10;desc: :op1&#10;capacity: ∞&#10;flow: 0.8">
<path fill="none" stroke="#1a0086" stroke-width="7" d="M64,-115.69C64,-97.25 64,-67.82 64,-46.26"/>
<polygon fill="#1a0086" stroke="#1a0086" stroke-width="7" points="70.13,-46.1 64,-36.1 57.88,-46.1 70.13,-46.1"/>
</a>
</g>
<text text-anchor="middle" x="84" y="-79.8" font-family="Times,serif" font-size="14.00">:op1</text>
<text text-anchor="middle" x="84" y="-64.8" font-family="Times,serif" font-size="14.00">(∞/0.8)</text>
</g>
<!-- 8 -->
<g id="node9" class="node">
<title>8</title>
<g id="a_node9"><a xlink:title="vertex: 22&#10;ig vertex: 8&#10;type: concept&#10;norm: garden&#10;pos_: NOUN&#10;tag_: NN">
<ellipse fill="#dda0dd" stroke="black" cx="204" cy="-134" rx="46.29" ry="18"/>
<text text-anchor="middle" x="204" y="-130.3" font-family="Times,serif" font-size="14.00">g0/garden</text>
</a>
</g>
</g>
<!-- 7&#45;&gt;8 -->
<g id="edge7" class="edge">
<title>7&#45;&gt;8</title>
<g id="a_edge7"><a xlink:title="edge: 28&#10;ig edge: 6&#10;desc: :location&#10;capacity: ∞&#10;flow: 0.63">
<path fill="none" stroke="#1a0086" stroke-width="7" d="M204,-231.69C204,-213.25 204,-183.82 204,-162.26"/>
<polygon fill="#1a0086" stroke="#1a0086" stroke-width="7" points="210.13,-162.1 204,-152.1 197.88,-162.1 210.13,-162.1"/>
</a>
</g>
<text text-anchor="middle" x="228" y="-195.8" font-family="Times,serif" font-size="14.00">:location</text>
<text text-anchor="middle" x="228" y="-180.8" font-family="Times,serif" font-size="14.00">(∞/0.63)</text>
</g>
<!-- 11 -->
<g id="node12" class="node">
<title>11</title>
<g id="a_node12"><a xlink:title="vertex: 36&#10;ig vertex: 11&#10;type: concept&#10;norm: chasing&#10;pos_: VERB&#10;tag_: VBG">
<ellipse fill="#dda0dd" stroke="black" cx="279" cy="-482" rx="52.79" ry="18"/>
<text text-anchor="middle" x="279" y="-478.3" font-family="Times,serif" font-size="14.00">c0/chase&#45;01</text>
</a>
</g>
</g>
<!-- 10&#45;&gt;11 -->
<g id="edge13" class="edge">
<title>10&#45;&gt;11</title>
<g id="a_edge13"><a xlink:title="edge: 43&#10;ig edge: 12&#10;desc: sent&#45;root[1]&#10;capacity: ∞&#10;flow: 0.96">
<path fill="none" stroke="#1a0086" stroke-width="7" d="M279,-579.69C279,-561.25 279,-531.82 279,-510.26"/>
<polygon fill="#1a0086" stroke="#1a0086" stroke-width="7" points="285.13,-510.1 279,-500.1 272.88,-510.1 285.13,-510.1"/>
</a>
</g>
<text text-anchor="middle" x="311" y="-543.8" font-family="Times,serif" font-size="14.00">sent&#45;root[1]</text>
<text text-anchor="middle" x="311" y="-528.8" font-family="Times,serif" font-size="14.00">(∞/0.96)</text>
</g>
<!-- 12 -->
<g id="node13" class="node">
<title>12</title>
<g id="a_node13"><a xlink:title="vertex: 38&#10;ig vertex: 12&#10;type: concept&#10;norm: dog&#10;pos_: NOUN&#10;tag_: NN">
<ellipse fill="#dda0dd" stroke="black" cx="272" cy="-366" rx="35.19" ry="18"/>
<text text-anchor="middle" x="272" y="-362.3" font-family="Times,serif" font-size="14.00">d0/dog</text>
</a>
</g>
</g>
<!-- 11&#45;&gt;12 -->
<g id="edge11" class="edge">
<title>11&#45;&gt;12</title>
<g id="a_edge11"><a xlink:title="edge: 41&#10;ig edge: 10&#10;desc: :ARG0&#10;capacity: ∞&#10;flow: 1.18">
<path fill="none" stroke="#1a0086" stroke-width="7" d="M277.94,-463.69C276.8,-445.25 275,-415.82 273.67,-394.26"/>
<polygon fill="#1a0086" stroke="#1a0086" stroke-width="7" points="279.78,-393.71 273.05,-384.1 267.55,-394.46 279.78,-393.71"/>
</a>
</g>
<text text-anchor="middle" x="300.5" y="-427.8" font-family="Times,serif" font-size="14.00">:ARG0</text>
<text text-anchor="middle" x="300.5" y="-412.8" font-family="Times,serif" font-size="14.00">(∞/1.18)</text>
</g>
<!-- 13 -->
<g id="node14" class="node">
<title>13</title>
<g id="a_node14"><a xlink:title="vertex: 40&#10;ig vertex: 13&#10;type: concept&#10;norm: cat&#10;pos_: NOUN&#10;tag_: NN">
<ellipse fill="#dda0dd" stroke="black" cx="389" cy="-366" rx="31.7" ry="18"/>
<text text-anchor="middle" x="389" y="-362.3" font-family="Times,serif" font-size="14.00">c1/cat</text>
</a>
</g>
</g>
<!-- 11&#45;&gt;13 -->
<g id="edge12" class="edge">
<title>11&#45;&gt;13</title>
<g id="a_edge12"><a xlink:title="edge: 42&#10;ig edge: 11&#10;desc: :ARG1&#10;capacity: ∞&#10;flow: 1.09">
<path fill="none" stroke="#1a0086" stroke-width="7" d="M302.26,-465.81C312.81,-458.36 325.12,-448.88 335,-439 349.36,-424.64 363.07,-406.29 373.07,-391.71"/>
<polygon fill="#1a0086" stroke="#1a0086" stroke-width="7" points="378.31,-394.91 378.8,-383.19 368.14,-388.08 378.31,-394.91"/>
</a>
</g>
<text text-anchor="middle" x="384.5" y="-427.8" font-family="Times,serif" font-size="14.00">:ARG1</text>
<text text-anchor="middle" x="384.5" y="-412.8" font-family="Times,serif" font-size="14.00">(∞/1.09)</text>
</g>
<!-- 14 -->
<g id="node15" class="node">
<title>14</title>
<g id="a_node15"><a xlink:title="vertex: 44&#10;ig vertex: 14&#10;type: doc&#10;Joe&#39;s dog was chasing a cat in the garden.">
<polygon fill="#dcdcdc" stroke="black" points="682,-732 614,-732 614,-696 682,-696 682,-732"/>
<text text-anchor="middle" x="648" y="-710.3" font-family="Times,serif" font-size="14.00">summary</text>
</a>
</g>
</g>
<!-- 15 -->
<g id="node16" class="node">
<title>15</title>
<g id="a_node16"><a xlink:title="vertex: 45&#10;ig vertex: 15&#10;type: sentence&#10;Joe&#39;s dog was chasing a cat in the garden.">
<polygon fill="#c7ecc6" stroke="black" points="705.5,-616 590.5,-616 590.5,-580 705.5,-580 705.5,-616"/>
<text text-anchor="middle" x="648" y="-594.3" font-family="Times,serif" font-size="14.00">Joe&#39;s dog was [...]</text>
</a>
</g>
</g>
<!-- 14&#45;&gt;15 -->
<g id="edge14" class="edge">
<title>14&#45;&gt;15</title>
<g id="a_edge14"><a xlink:title="edge: 46&#10;ig edge: 13&#10;desc: sent[0]&#10;capacity: ∞&#10;flow: 0.98">
<path fill="none" stroke="#1a0086" stroke-width="7" d="M648,-695.69C648,-677.25 648,-647.82 648,-626.26"/>
<polygon fill="#1a0086" stroke="#1a0086" stroke-width="7" points="654.13,-626.1 648,-616.1 641.88,-626.1 654.13,-626.1"/>
</a>
</g>
<text text-anchor="middle" x="671.5" y="-659.8" font-family="Times,serif" font-size="14.00">sent[0]</text>
<text text-anchor="middle" x="671.5" y="-644.8" font-family="Times,serif" font-size="14.00">(∞/0.98)</text>
</g>
<!-- 16 -->
<g id="node17" class="node">
<title>16</title>
<g id="a_node17"><a xlink:title="vertex: 48&#10;ig vertex: 16&#10;type: concept&#10;norm: chasing&#10;pos_: VERB&#10;tag_: VBG">
<ellipse fill="#c7ecc6" stroke="black" cx="648" cy="-482" rx="52.79" ry="18"/>
<text text-anchor="middle" x="648" y="-478.3" font-family="Times,serif" font-size="14.00">c0/chase&#45;01</text>
</a>
</g>
</g>
<!-- 15&#45;&gt;16 -->
<g id="edge20" class="edge">
<title>15&#45;&gt;16</title>
<g id="a_edge20"><a xlink:title="edge: 64&#10;ig edge: 19&#10;desc: sent&#45;root[0]&#10;capacity: ∞&#10;flow: 0.94">
<path fill="none" stroke="#1a0086" stroke-width="7" d="M648,-579.69C648,-561.25 648,-531.82 648,-510.26"/>
<polygon fill="#1a0086" stroke="#1a0086" stroke-width="7" points="654.13,-510.1 648,-500.1 641.88,-510.1 654.13,-510.1"/>
</a>
</g>
<text text-anchor="middle" x="680" y="-543.8" font-family="Times,serif" font-size="14.00">sent&#45;root[0]</text>
<text text-anchor="middle" x="680" y="-528.8" font-family="Times,serif" font-size="14.00">(∞/0.94)</text>
</g>
<!-- 17 -->
<g id="node18" class="node">
<title>17</title>
<g id="a_node18"><a xlink:title="vertex: 50&#10;ig vertex: 17&#10;type: concept&#10;norm: garden&#10;pos_: NOUN&#10;tag_: NN">
<ellipse fill="#c7ecc6" stroke="black" cx="517" cy="-366" rx="46.29" ry="18"/>
<text text-anchor="middle" x="517" y="-362.3" font-family="Times,serif" font-size="14.00">g0/garden</text>
</a>
</g>
</g>
<!-- 16&#45;&gt;17 -->
<g id="edge15" class="edge">
<title>16&#45;&gt;17</title>
<g id="a_edge15"><a xlink:title="edge: 59&#10;ig edge: 14&#10;desc: :location&#10;capacity: ∞&#10;flow: 0.63">
<path fill="none" stroke="#1a0086" stroke-width="7" d="M624.19,-465.79C612.87,-458.2 599.36,-448.6 588,-439 570.35,-424.09 552.08,-405.47 538.49,-390.91"/>
<polygon fill="#1a0086" stroke="#1a0086" stroke-width="7" points="542.74,-386.48 531.46,-383.28 533.74,-394.79 542.74,-386.48"/>
</a>
</g>
<text text-anchor="middle" x="612" y="-427.8" font-family="Times,serif" font-size="14.00">:location</text>
<text text-anchor="middle" x="612" y="-412.8" font-family="Times,serif" font-size="14.00">(∞/0.63)</text>
</g>
<!-- 18 -->
<g id="node19" class="node">
<title>18</title>
<g id="a_node19"><a xlink:title="vertex: 52&#10;ig vertex: 18&#10;type: concept&#10;norm: dog&#10;pos_: NOUN&#10;tag_: NN">
<ellipse fill="#c7ecc6" stroke="black" cx="648" cy="-366" rx="35.19" ry="18"/>
<text text-anchor="middle" x="648" y="-362.3" font-family="Times,serif" font-size="14.00">d0/dog</text>
</a>
</g>
</g>
<!-- 16&#45;&gt;18 -->
<g id="edge16" class="edge">
<title>16&#45;&gt;18</title>
<g id="a_edge16"><a xlink:title="edge: 60&#10;ig edge: 15&#10;desc: :ARG0&#10;capacity: ∞&#10;flow: 1.02">
<path fill="none" stroke="#1a0086" stroke-width="7" d="M648,-463.69C648,-445.25 648,-415.82 648,-394.26"/>
<polygon fill="#1a0086" stroke="#1a0086" stroke-width="7" points="654.13,-394.1 648,-384.1 641.88,-394.1 654.13,-394.1"/>
</a>
</g>
<text text-anchor="middle" x="671.5" y="-427.8" font-family="Times,serif" font-size="14.00">:ARG0</text>
<text text-anchor="middle" x="671.5" y="-412.8" font-family="Times,serif" font-size="14.00">(∞/1.02)</text>
</g>
<!-- 21 -->
<g id="node22" class="node">
<title>21</title>
<g id="a_node22"><a xlink:title="vertex: 58&#10;ig vertex: 21&#10;type: concept&#10;norm: cat&#10;pos_: NOUN&#10;tag_: NN">
<ellipse fill="#c7ecc6" stroke="black" cx="765" cy="-366" rx="31.7" ry="18"/>
<text text-anchor="middle" x="765" y="-362.3" font-family="Times,serif" font-size="14.00">c1/cat</text>
</a>
</g>
</g>
<!-- 16&#45;&gt;21 -->
<g id="edge19" class="edge">
<title>16&#45;&gt;21</title>
<g id="a_edge19"><a xlink:title="edge: 63&#10;ig edge: 18&#10;desc: :ARG1&#10;capacity: ∞&#10;flow: 1.21">
<path fill="none" stroke="#1a0086" stroke-width="7" d="M672.4,-465.84C683.5,-458.4 696.48,-448.92 707,-439 722.43,-424.46 737.38,-405.76 748.23,-391.06"/>
<polygon fill="#1a0086" stroke="#1a0086" stroke-width="7" points="753.22,-394.62 754.12,-382.93 743.3,-387.43 753.22,-394.62"/>
</a>
</g>
<text text-anchor="middle" x="757.5" y="-427.8" font-family="Times,serif" font-size="14.00">:ARG1</text>
<text text-anchor="middle" x="757.5" y="-412.8" font-family="Times,serif" font-size="14.00">(∞/1.21)</text>
</g>
<!-- 19 -->
<g id="node20" class="node">
<title>19</title>
<g id="a_node20"><a xlink:title="vertex: 54&#10;ig vertex: 19&#10;type: concept&#10;description: p0/person">
<ellipse fill="#c7ecc6" stroke="black" cx="648" cy="-250" rx="45.49" ry="18"/>
<text text-anchor="middle" x="648" y="-246.3" font-family="Times,serif" font-size="14.00">p0/person</text>
</a>
</g>
</g>
<!-- 18&#45;&gt;19 -->
<g id="edge17" class="edge">
<title>18&#45;&gt;19</title>
<g id="a_edge17"><a xlink:title="edge: 61&#10;ig edge: 16&#10;desc: :poss&#10;capacity: ∞&#10;flow: 0.8">
<path fill="none" stroke="#1a0086" stroke-width="7" d="M648,-347.69C648,-329.25 648,-299.82 648,-278.26"/>
<polygon fill="#1a0086" stroke="#1a0086" stroke-width="7" points="654.13,-278.1 648,-268.1 641.88,-278.1 654.13,-278.1"/>
</a>
</g>
<text text-anchor="middle" x="668" y="-311.8" font-family="Times,serif" font-size="14.00">:poss</text>
<text text-anchor="middle" x="668" y="-296.8" font-family="Times,serif" font-size="14.00">(∞/0.8)</text>
</g>
<!-- 20 -->
<g id="node21" class="node">
<title>20</title>
<g id="a_node21"><a xlink:title="vertex: 56&#10;ig vertex: 20&#10;type: concept&#10;description: n0/name">
<ellipse fill="#c7ecc6" stroke="black" cx="648" cy="-134" rx="41.69" ry="18"/>
<text text-anchor="middle" x="648" y="-130.3" font-family="Times,serif" font-size="14.00">n0/name</text>
</a>
</g>
</g>
<!-- 19&#45;&gt;20 -->
<g id="edge18" class="edge">
<title>19&#45;&gt;20</title>
<g id="a_edge18"><a xlink:title="edge: 62&#10;ig edge: 17&#10;desc: :name&#10;capacity: ∞&#10;flow: 0.8">
<path fill="none" stroke="#1a0086" stroke-width="7" d="M648,-231.69C648,-213.25 648,-183.82 648,-162.26"/>
<polygon fill="#1a0086" stroke="#1a0086" stroke-width="7" points="654.13,-162.1 648,-152.1 641.88,-162.1 654.13,-162.1"/>
</a>
</g>
<text text-anchor="middle" x="668" y="-195.8" font-family="Times,serif" font-size="14.00">:name</text>
<text text-anchor="middle" x="668" y="-180.8" font-family="Times,serif" font-size="14.00">(∞/0.8)</text>
</g>
<!-- 22 -->
<g id="node23" class="node">
<title>22</title>
<g id="a_node23"><a xlink:title="vertex: 66&#10;ig vertex: 22&#10;type: attribute&#10;ent_: PERSON&#10;norm: Joe&#10;pos_: PROPN&#10;tag_: NNP">
<path fill="#c7ecc6" stroke="black" d="M663,-36C663,-36 633,-36 633,-36 627,-36 621,-30 621,-24 621,-24 621,-12 621,-12 621,-6 627,0 633,0 633,0 663,0 663,0 669,0 675,-6 675,-12 675,-12 675,-24 675,-24 675,-30 669,-36 663,-36"/>
<text text-anchor="middle" x="648" y="-14.3" font-family="Times,serif" font-size="14.00">Joe</text>
</a>
</g>
</g>
<!-- 20&#45;&gt;22 -->
<g id="edge21" class="edge">
<title>20&#45;&gt;22</title>
<g id="a_edge21"><a xlink:title="edge: 67&#10;ig edge: 20&#10;desc: :op1&#10;capacity: ∞&#10;flow: 0.8">
<path fill="none" stroke="#1a0086" stroke-width="7" d="M648,-115.69C648,-97.25 648,-67.82 648,-46.26"/>
<polygon fill="#1a0086" stroke="#1a0086" stroke-width="7" points="654.13,-46.1 648,-36.1 641.88,-46.1 654.13,-46.1"/>
</a>
</g>
<text text-anchor="middle" x="668" y="-79.8" font-family="Times,serif" font-size="14.00">:op1</text>
<text text-anchor="middle" x="668" y="-64.8" font-family="Times,serif" font-size="14.00">(∞/0.8)</text>
</g>
</g>
</svg>
