<?xml version="1.0" encoding="UTF-8" standalone="no"?>
<!DOCTYPE svg PUBLIC "-//W3C//DTD SVG 1.1//EN"
 "http://www.w3.org/Graphics/SVG/1.1/DTD/svg11.dtd">
<!-- Generated by graphviz version 2.49.4~dev.20211117.1626 (20211117.1626)
 -->
<!-- Title: amr_graph Pages: 1 -->
<svg width="1005pt" height="1058pt"
 viewBox="0.00 0.00 1004.60 1058.00" xmlns="http://www.w3.org/2000/svg" xmlns:xlink="http://www.w3.org/1999/xlink">
<g id="graph0" class="graph" transform="scale(1 1) rotate(0) translate(4 1054)">
<title>amr_graph</title>
<polygon fill="white" stroke="transparent" points="-4,4 -4,-1054 1000.6,-1054 1000.6,4 -4,4"/>
<!-- 0 -->
<g id="node1" class="node">
<title>0</title>
<g id="a_node1"><a xlink:title="vertex: 6&#10;ig vertex: 0&#10;type: doc&#10;I saw Joe&#39;s dog, which was running in the garden. The dog&#10;was chasing a cat.">
<polygon fill="#dcdcdc" stroke="black" points="469.6,-949 415.6,-949 415.6,-913 469.6,-913 469.6,-949"/>
<text text-anchor="middle" x="442.6" y="-927.3" font-family="Times,serif" font-size="14.00">source</text>
</a>
</g>
</g>
<!-- 24 -->
<g id="node25" class="node">
<title>24</title>
<g id="a_node25"><a xlink:title="vertex: 81&#10;ig vertex: 24&#10;type: control&#10;description: T">
<ellipse fill="#ff69b4" stroke="black" cx="442.6" cy="-1032" rx="18" ry="18"/>
<text text-anchor="middle" x="442.6" y="-1028.3" font-family="Times,serif" font-size="14.00">T</text>
</a>
</g>
</g>
<!-- 0&#45;&gt;24 -->
<g id="edge34" class="edge">
<title>0&#45;&gt;24</title>
<g id="a_edge34"><a xlink:title="edge: 82&#10;ig edge: 33&#10;desc: ∞/0.56&#10;capacity: ∞&#10;flow: 0.56">
<path fill="none" stroke="#1a0086" stroke-width="7" d="M442.6,-949.24C442.6,-964.29 442.6,-986.38 442.6,-1003.81"/>
<polygon fill="#1a0086" stroke="#1a0086" stroke-width="7" points="436.47,-1003.95 442.6,-1013.95 448.72,-1003.95 436.47,-1003.95"/>
</a>
</g>
<text text-anchor="middle" x="466.1" y="-977.8" font-family="Times,serif" font-size="14.00">(∞/0.56)</text>
</g>
<!-- 1 -->
<g id="node2" class="node">
<title>1</title>
<g id="a_node2"><a xlink:title="vertex: 7&#10;ig vertex: 1&#10;type: sentence&#10;I saw Joe&#39;s dog, which was running in the garden.">
<polygon fill="#dda0dd" stroke="black" points="356.1,-833 257.1,-833 257.1,-797 356.1,-797 356.1,-833"/>
<text text-anchor="middle" x="306.6" y="-811.3" font-family="Times,serif" font-size="14.00">I saw Joe&#39;s [...]</text>
</a>
</g>
</g>
<!-- 1&#45;&gt;0 -->
<g id="edge1" class="edge">
<title>1&#45;&gt;0</title>
<g id="a_edge1"><a xlink:title="edge: 8&#10;ig edge: 0&#10;desc: sent[0]&#10;capacity: ∞&#10;flow: 0.47">
<path fill="none" stroke="#1a0086" stroke-width="7" d="M326.96,-833.07C350.19,-852.54 388.34,-884.52 414.42,-906.38"/>
<polygon fill="#1a0086" stroke="#1a0086" stroke-width="7" points="410.5,-911.09 422.1,-912.82 418.37,-901.7 410.5,-911.09"/>
</a>
</g>
<text text-anchor="middle" x="414.1" y="-876.8" font-family="Times,serif" font-size="14.00">sent[0]</text>
<text text-anchor="middle" x="414.1" y="-861.8" font-family="Times,serif" font-size="14.00">(∞/0.47)</text>
</g>
<!-- 2 -->
<g id="node3" class="node">
<title>2</title>
<g id="a_node3"><a xlink:title="vertex: 10&#10;ig vertex: 2&#10;type: concept&#10;norm: saw&#10;pos_: VERB&#10;tag_: VBD">
<ellipse fill="#dda0dd" stroke="black" cx="168.6" cy="-699" rx="44.39" ry="18"/>
<text text-anchor="middle" x="168.6" y="-695.3" font-family="Times,serif" font-size="14.00">s0/see&#45;01</text>
</a>
</g>
</g>
<!-- 2&#45;&gt;1 -->
<g id="edge8" class="edge">
<title>2&#45;&gt;1</title>
<g id="a_edge8"><a xlink:title="edge: 29&#10;ig edge: 7&#10;desc: sent&#45;root[0]&#10;capacity: ∞&#10;flow: 0.46">
<path fill="none" stroke="#2000a1" stroke-width="7" d="M187.21,-715.37C210.41,-734.54 250.33,-767.52 277.56,-790.02"/>
<polygon fill="#2000a1" stroke="#2000a1" stroke-width="7" points="273.97,-794.99 285.58,-796.64 281.77,-785.54 273.97,-794.99"/>
</a>
</g>
<text text-anchor="middle" x="285.6" y="-760.8" font-family="Times,serif" font-size="14.00">sent&#45;root[0]</text>
<text text-anchor="middle" x="285.6" y="-745.8" font-family="Times,serif" font-size="14.00">(∞/0.46)</text>
</g>
<!-- 3 -->
<g id="node4" class="node">
<title>3</title>
<g id="a_node4"><a xlink:title="vertex: 12&#10;ig vertex: 3&#10;type: concept&#10;norm: I&#10;pos_: PRON&#10;tag_: PRP">
<ellipse fill="#dda0dd" stroke="black" cx="56.6" cy="-583" rx="27" ry="18"/>
<text text-anchor="middle" x="56.6" y="-579.3" font-family="Times,serif" font-size="14.00">i0/i</text>
</a>
</g>
</g>
<!-- 3&#45;&gt;2 -->
<g id="edge2" class="edge">
<title>3&#45;&gt;2</title>
<g id="a_edge2"><a xlink:title="edge: 23&#10;ig edge: 1&#10;desc: :ARG0&#10;capacity: ∞&#10;flow: 0">
<path fill="none" stroke="#beaeff" stroke-width="7" d="M67.97,-599.36C79.48,-614.47 98.16,-637.85 116.6,-656 123.76,-663.06 132.03,-670.15 139.84,-676.44"/>
<polygon fill="#beaeff" stroke="#beaeff" stroke-width="7" points="136.42,-681.54 148.06,-682.92 144,-671.92 136.42,-681.54"/>
</a>
</g>
<text text-anchor="middle" x="136.6" y="-644.8" font-family="Times,serif" font-size="14.00">:ARG0</text>
<text text-anchor="middle" x="136.6" y="-629.8" font-family="Times,serif" font-size="14.00">(∞/0)</text>
</g>
<!-- 4 -->
<g id="node5" class="node">
<title>4</title>
<g id="a_node5"><a xlink:title="vertex: 14&#10;ig vertex: 4&#10;type: concept&#10;norm: dog&#10;pos_: NOUN&#10;tag_: NN">
<ellipse fill="#dda0dd" stroke="black" cx="168.6" cy="-583" rx="35.19" ry="18"/>
<text text-anchor="middle" x="168.6" y="-579.3" font-family="Times,serif" font-size="14.00">d0/dog</text>
</a>
</g>
</g>
<!-- 4&#45;&gt;2 -->
<g id="edge3" class="edge">
<title>4&#45;&gt;2</title>
<g id="a_edge3"><a xlink:title="edge: 24&#10;ig edge: 2&#10;desc: :ARG1&#10;capacity: ∞&#10;flow: 0.61">
<path fill="none" stroke="#1a0086" stroke-width="7" d="M168.6,-601.31C168.6,-619.75 168.6,-649.18 168.6,-670.74"/>
<polygon fill="#1a0086" stroke="#1a0086" stroke-width="7" points="162.47,-670.9 168.6,-680.9 174.72,-670.9 162.47,-670.9"/>
</a>
</g>
<text text-anchor="middle" x="192.1" y="-644.8" font-family="Times,serif" font-size="14.00">:ARG1</text>
<text text-anchor="middle" x="192.1" y="-629.8" font-family="Times,serif" font-size="14.00">(∞/0.61)</text>
</g>
<!-- 5 -->
<g id="node6" class="node">
<title>5</title>
<g id="a_node6"><a xlink:title="vertex: 16&#10;ig vertex: 5&#10;type: concept&#10;description: p0/person">
<ellipse fill="#dda0dd" stroke="black" cx="67.6" cy="-467" rx="45.49" ry="18"/>
<text text-anchor="middle" x="67.6" y="-463.3" font-family="Times,serif" font-size="14.00">p0/person</text>
</a>
</g>
</g>
<!-- 5&#45;&gt;4 -->
<g id="edge4" class="edge">
<title>5&#45;&gt;4</title>
<g id="a_edge4"><a xlink:title="edge: 25&#10;ig edge: 3&#10;desc: :poss&#10;capacity: ∞&#10;flow: 0.8">
<path fill="none" stroke="#1a0086" stroke-width="7" d="M71.98,-485.04C76.71,-500.74 85.51,-523.97 99.6,-540 108.89,-550.58 121.51,-559.32 133.42,-566.03"/>
<polygon fill="#1a0086" stroke="#1a0086" stroke-width="7" points="130.61,-571.48 142.31,-570.77 136.37,-560.67 130.61,-571.48"/>
</a>
</g>
<text text-anchor="middle" x="119.6" y="-528.8" font-family="Times,serif" font-size="14.00">:poss</text>
<text text-anchor="middle" x="119.6" y="-513.8" font-family="Times,serif" font-size="14.00">(∞/0.8)</text>
</g>
<!-- 6 -->
<g id="node7" class="node">
<title>6</title>
<g id="a_node7"><a xlink:title="vertex: 18&#10;ig vertex: 6&#10;type: concept&#10;description: n0/name">
<ellipse fill="#dda0dd" stroke="black" cx="41.6" cy="-351" rx="41.69" ry="18"/>
<text text-anchor="middle" x="41.6" y="-347.3" font-family="Times,serif" font-size="14.00">n0/name</text>
</a>
</g>
</g>
<!-- 6&#45;&gt;5 -->
<g id="edge5" class="edge">
<title>6&#45;&gt;5</title>
<g id="a_edge5"><a xlink:title="edge: 26&#10;ig edge: 4&#10;desc: :name&#10;capacity: ∞&#10;flow: 0.8">
<path fill="none" stroke="#1a0086" stroke-width="7" d="M35.98,-369.06C31.99,-383.96 28.36,-405.96 34.6,-424 36.78,-430.33 40.36,-436.42 44.37,-441.92"/>
<polygon fill="#1a0086" stroke="#1a0086" stroke-width="7" points="39.85,-446.07 50.89,-450.01 49.38,-438.38 39.85,-446.07"/>
</a>
</g>
<text text-anchor="middle" x="54.6" y="-412.8" font-family="Times,serif" font-size="14.00">:name</text>
<text text-anchor="middle" x="54.6" y="-397.8" font-family="Times,serif" font-size="14.00">(∞/0.8)</text>
</g>
<!-- 7 -->
<g id="node8" class="node">
<title>7</title>
<g id="a_node8"><a xlink:title="vertex: 20&#10;ig vertex: 7&#10;type: concept&#10;norm: running&#10;pos_: VERB&#10;tag_: VBG">
<ellipse fill="#dda0dd" stroke="black" cx="217.6" cy="-467" rx="44.39" ry="18"/>
<text text-anchor="middle" x="217.6" y="-463.3" font-family="Times,serif" font-size="14.00">r0/run&#45;02</text>
</a>
</g>
</g>
<!-- 7&#45;&gt;4 -->
<g id="edge6" class="edge">
<title>7&#45;&gt;4</title>
<g id="a_edge6"><a xlink:title="edge: 27&#10;ig edge: 5&#10;desc: :ARG0&#45;of&#10;capacity: ∞&#10;flow: 0.32">
<path fill="none" stroke="#3000f1" stroke-width="7" d="M187.62,-480.53C175.37,-487.32 162.48,-497.02 155.6,-510 148.17,-524 151.07,-541.44 155.99,-555.66"/>
<polygon fill="#3000f1" stroke="#3000f1" stroke-width="7" points="150.44,-558.29 159.81,-565.34 161.84,-553.79 150.44,-558.29"/>
</a>
</g>
<text text-anchor="middle" x="183.1" y="-528.8" font-family="Times,serif" font-size="14.00">:ARG0&#45;of</text>
<text text-anchor="middle" x="183.1" y="-513.8" font-family="Times,serif" font-size="14.00">(∞/0.32)</text>
</g>
<!-- 8 -->
<g id="node9" class="node">
<title>8</title>
<g id="a_node9"><a xlink:title="vertex: 22&#10;ig vertex: 8&#10;type: concept&#10;norm: garden&#10;pos_: NOUN&#10;tag_: NN">
<ellipse fill="#dda0dd" stroke="black" cx="344.6" cy="-351" rx="46.29" ry="18"/>
<text text-anchor="middle" x="344.6" y="-347.3" font-family="Times,serif" font-size="14.00">g0/garden</text>
</a>
</g>
</g>
<!-- 8&#45;&gt;7 -->
<g id="edge7" class="edge">
<title>8&#45;&gt;7</title>
<g id="a_edge7"><a xlink:title="edge: 28&#10;ig edge: 6&#10;desc: :location&#10;capacity: ∞&#10;flow: 0.63">
<path fill="none" stroke="#1a0086" stroke-width="7" d="M305.63,-360.73C285.45,-367.01 261.72,-377.38 245.6,-394 233.8,-406.16 226.83,-423.85 222.79,-438.66"/>
<polygon fill="#1a0086" stroke="#1a0086" stroke-width="7" points="216.73,-437.65 220.34,-448.81 228.64,-440.52 216.73,-437.65"/>
</a>
</g>
<text text-anchor="middle" x="269.6" y="-412.8" font-family="Times,serif" font-size="14.00">:location</text>
<text text-anchor="middle" x="269.6" y="-397.8" font-family="Times,serif" font-size="14.00">(∞/0.63)</text>
</g>
<!-- 9 -->
<g id="node10" class="node">
<title>9</title>
<g id="a_node10"><a xlink:title="vertex: 31&#10;ig vertex: 9&#10;type: attribute&#10;ent_: PERSON&#10;norm: Joe&#10;pos_: PROPN&#10;tag_: NNP">
<path fill="#dda0dd" stroke="black" d="M54.6,-253C54.6,-253 24.6,-253 24.6,-253 18.6,-253 12.6,-247 12.6,-241 12.6,-241 12.6,-229 12.6,-229 12.6,-223 18.6,-217 24.6,-217 24.6,-217 54.6,-217 54.6,-217 60.6,-217 66.6,-223 66.6,-229 66.6,-229 66.6,-241 66.6,-241 66.6,-247 60.6,-253 54.6,-253"/>
<text text-anchor="middle" x="39.6" y="-231.3" font-family="Times,serif" font-size="14.00">Joe</text>
</a>
</g>
</g>
<!-- 9&#45;&gt;6 -->
<g id="edge9" class="edge">
<title>9&#45;&gt;6</title>
<g id="a_edge9"><a xlink:title="edge: 32&#10;ig edge: 8&#10;desc: :op1&#10;capacity: ∞&#10;flow: 0.8">
<path fill="none" stroke="#1a0086" stroke-width="7" d="M23.75,-253.04C18.14,-260.2 12.5,-268.95 9.6,-278 5.53,-290.7 5.33,-295.37 9.6,-308 11.75,-314.38 15.31,-320.56 19.28,-326.13"/>
<polygon fill="#1a0086" stroke="#1a0086" stroke-width="7" points="14.73,-330.25 25.73,-334.32 24.35,-322.67 14.73,-330.25"/>
</a>
</g>
<text text-anchor="middle" x="29.6" y="-296.8" font-family="Times,serif" font-size="14.00">:op1</text>
<text text-anchor="middle" x="29.6" y="-281.8" font-family="Times,serif" font-size="14.00">(∞/0.8)</text>
</g>
<!-- 10 -->
<g id="node11" class="node">
<title>10</title>
<g id="a_node11"><a xlink:title="vertex: 33&#10;ig vertex: 10&#10;type: sentence&#10;The dog was chasing a cat.">
<polygon fill="#dda0dd" stroke="black" points="634.6,-833 524.6,-833 524.6,-797 634.6,-797 634.6,-833"/>
<text text-anchor="middle" x="579.6" y="-811.3" font-family="Times,serif" font-size="14.00">The dog was [...]</text>
</a>
</g>
</g>
<!-- 10&#45;&gt;0 -->
<g id="edge10" class="edge">
<title>10&#45;&gt;0</title>
<g id="a_edge10"><a xlink:title="edge: 34&#10;ig edge: 9&#10;desc: sent[1]&#10;capacity: ∞&#10;flow: 0.89">
<path fill="none" stroke="#1a0086" stroke-width="7" d="M559.09,-833.07C535.68,-852.54 497.25,-884.52 470.98,-906.38"/>
<polygon fill="#1a0086" stroke="#1a0086" stroke-width="7" points="467.02,-901.71 463.25,-912.82 474.85,-911.13 467.02,-901.71"/>
</a>
</g>
<text text-anchor="middle" x="550.1" y="-876.8" font-family="Times,serif" font-size="14.00">sent[1]</text>
<text text-anchor="middle" x="550.1" y="-861.8" font-family="Times,serif" font-size="14.00">(∞/0.89)</text>
</g>
<!-- 11 -->
<g id="node12" class="node">
<title>11</title>
<g id="a_node12"><a xlink:title="vertex: 36&#10;ig vertex: 11&#10;type: concept&#10;norm: chasing&#10;pos_: VERB&#10;tag_: VBG">
<ellipse fill="#dda0dd" stroke="black" cx="672.6" cy="-699" rx="52.79" ry="18"/>
<text text-anchor="middle" x="672.6" y="-695.3" font-family="Times,serif" font-size="14.00">c0/chase&#45;01</text>
</a>
</g>
</g>
<!-- 11&#45;&gt;10 -->
<g id="edge13" class="edge">
<title>11&#45;&gt;10</title>
<g id="a_edge13"><a xlink:title="edge: 43&#10;ig edge: 12&#10;desc: sent&#45;root[1]&#10;capacity: ∞&#10;flow: 0.96">
<path fill="none" stroke="#1a0086" stroke-width="7" d="M660.2,-716.52C649.03,-731.27 632.05,-753.34 616.6,-772 612.02,-777.53 607,-783.37 602.17,-788.88"/>
<polygon fill="#1a0086" stroke="#1a0086" stroke-width="7" points="597.35,-785.08 595.32,-796.63 606.53,-793.19 597.35,-785.08"/>
</a>
</g>
<text text-anchor="middle" x="671.6" y="-760.8" font-family="Times,serif" font-size="14.00">sent&#45;root[1]</text>
<text text-anchor="middle" x="671.6" y="-745.8" font-family="Times,serif" font-size="14.00">(∞/0.96)</text>
</g>
<!-- 12 -->
<g id="node13" class="node">
<title>12</title>
<g id="a_node13"><a xlink:title="vertex: 38&#10;ig vertex: 12&#10;type: concept&#10;norm: dog&#10;pos_: NOUN&#10;tag_: NN">
<ellipse fill="#dda0dd" stroke="black" cx="675.6" cy="-583" rx="35.19" ry="18"/>
<text text-anchor="middle" x="675.6" y="-579.3" font-family="Times,serif" font-size="14.00">d0/dog</text>
</a>
</g>
</g>
<!-- 12&#45;&gt;11 -->
<g id="edge11" class="edge">
<title>12&#45;&gt;11</title>
<g id="a_edge11"><a xlink:title="edge: 41&#10;ig edge: 10&#10;desc: :ARG0&#10;capacity: ∞&#10;flow: 1.18">
<path fill="none" stroke="#1a0086" stroke-width="7" d="M675.14,-601.31C674.66,-619.75 673.88,-649.18 673.31,-670.74"/>
<polygon fill="#1a0086" stroke="#1a0086" stroke-width="7" points="667.19,-670.74 673.05,-680.9 679.43,-671.06 667.19,-670.74"/>
</a>
</g>
<text text-anchor="middle" x="697.1" y="-644.8" font-family="Times,serif" font-size="14.00">:ARG0</text>
<text text-anchor="middle" x="697.1" y="-629.8" font-family="Times,serif" font-size="14.00">(∞/1.18)</text>
</g>
<!-- 13 -->
<g id="node14" class="node">
<title>13</title>
<g id="a_node14"><a xlink:title="vertex: 40&#10;ig vertex: 13&#10;type: concept&#10;norm: cat&#10;pos_: NOUN&#10;tag_: NN">
<ellipse fill="#dda0dd" stroke="black" cx="868.6" cy="-583" rx="31.7" ry="18"/>
<text text-anchor="middle" x="868.6" y="-579.3" font-family="Times,serif" font-size="14.00">c1/cat</text>
</a>
</g>
</g>
<!-- 13&#45;&gt;11 -->
<g id="edge12" class="edge">
<title>13&#45;&gt;11</title>
<g id="a_edge12"><a xlink:title="edge: 42&#10;ig edge: 11&#10;desc: :ARG1&#10;capacity: ∞&#10;flow: 1.09">
<path fill="none" stroke="#1a0086" stroke-width="7" d="M847.25,-596.42C813.49,-616.05 747.46,-654.46 706.97,-678.01"/>
<polygon fill="#1a0086" stroke="#1a0086" stroke-width="7" points="703.81,-672.76 698.24,-683.08 709.97,-683.35 703.81,-672.76"/>
</a>
</g>
<text text-anchor="middle" x="817.1" y="-644.8" font-family="Times,serif" font-size="14.00">:ARG1</text>
<text text-anchor="middle" x="817.1" y="-629.8" font-family="Times,serif" font-size="14.00">(∞/1.09)</text>
</g>
<!-- 14 -->
<g id="node15" class="node">
<title>14</title>
<g id="a_node15"><a xlink:title="vertex: 44&#10;ig vertex: 14&#10;type: doc&#10;Joe&#39;s dog was chasing a cat in the garden.">
<polygon fill="#dcdcdc" stroke="black" points="474.6,-833 406.6,-833 406.6,-797 474.6,-797 474.6,-833"/>
<text text-anchor="middle" x="440.6" y="-811.3" font-family="Times,serif" font-size="14.00">summary</text>
</a>
</g>
</g>
<!-- 15 -->
<g id="node16" class="node">
<title>15</title>
<g id="a_node16"><a xlink:title="vertex: 45&#10;ig vertex: 15&#10;type: sentence&#10;Joe&#39;s dog was chasing a cat in the garden.">
<polygon fill="#c7ecc6" stroke="black" points="498.1,-717 383.1,-717 383.1,-681 498.1,-681 498.1,-717"/>
<text text-anchor="middle" x="440.6" y="-695.3" font-family="Times,serif" font-size="14.00">Joe&#39;s dog was [...]</text>
</a>
</g>
</g>
<!-- 15&#45;&gt;1 -->
<g id="edge22" class="edge">
<title>15&#45;&gt;1</title>
<g id="a_edge22"><a xlink:title="edge: 68&#10;ig edge: 21&#10;desc: 0.61/0.61&#10;capacity: 0.61&#10;flow: 0.61">
<path fill="none" stroke="#ff3528" stroke-width="2" d="M405.19,-717.15C392.69,-724.01 378.94,-732.54 367.6,-742 351.29,-755.59 335.87,-773.87 324.61,-788.61"/>
<polygon fill="#ff3528" stroke="#ff3528" stroke-width="2" points="321.66,-786.71 318.48,-796.82 327.27,-790.89 321.66,-786.71"/>
</a>
</g>
<text text-anchor="middle" x="398.1" y="-753.3" font-family="Times,serif" font-size="14.00">(0.61/0.61)</text>
</g>
<!-- 15&#45;&gt;10 -->
<g id="edge23" class="edge">
<title>15&#45;&gt;10</title>
<g id="a_edge23"><a xlink:title="edge: 69&#10;ig edge: 22&#10;desc: 0.65/0.65&#10;capacity: 0.65&#10;flow: 0.65">
<path fill="none" stroke="#ff3528" stroke-width="2" d="M464.04,-717.01C474.18,-724.51 486.1,-733.53 496.6,-742 515.68,-757.41 536.54,-775.5 552.57,-789.7"/>
<polygon fill="#ff3528" stroke="#ff3528" stroke-width="2" points="550.68,-792.7 560.47,-796.73 555.33,-787.47 550.68,-792.7"/>
</a>
</g>
<text text-anchor="middle" x="561.1" y="-753.3" font-family="Times,serif" font-size="14.00">(0.65/0.65)</text>
</g>
<!-- 15&#45;&gt;14 -->
<g id="edge14" class="edge">
<title>15&#45;&gt;14</title>
<g id="a_edge14"><a xlink:title="edge: 46&#10;ig edge: 13&#10;desc: sent[0]&#10;capacity: ∞&#10;flow: 0.98">
<path fill="none" stroke="#1a0086" stroke-width="7" d="M440.6,-717.31C440.6,-735.75 440.6,-765.18 440.6,-786.74"/>
<polygon fill="#1a0086" stroke="#1a0086" stroke-width="7" points="434.47,-786.9 440.6,-796.9 446.72,-786.9 434.47,-786.9"/>
</a>
</g>
<text text-anchor="middle" x="464.1" y="-760.8" font-family="Times,serif" font-size="14.00">sent[0]</text>
<text text-anchor="middle" x="464.1" y="-745.8" font-family="Times,serif" font-size="14.00">(∞/0.98)</text>
</g>
<!-- 16 -->
<g id="node17" class="node">
<title>16</title>
<g id="a_node17"><a xlink:title="vertex: 48&#10;ig vertex: 16&#10;type: concept&#10;norm: chasing&#10;pos_: VERB&#10;tag_: VBG">
<ellipse fill="#c7ecc6" stroke="black" cx="466.6" cy="-583" rx="52.79" ry="18"/>
<text text-anchor="middle" x="466.6" y="-579.3" font-family="Times,serif" font-size="14.00">c0/chase&#45;01</text>
</a>
</g>
</g>
<!-- 16&#45;&gt;11 -->
<g id="edge29" class="edge">
<title>16&#45;&gt;11</title>
<g id="a_edge29"><a xlink:title="edge: 75&#10;ig edge: 28&#10;desc: 0.62/0.62&#10;capacity: 0.62&#10;flow: 0.62">
<path fill="none" stroke="#ff3528" stroke-width="2" d="M493.11,-598.67C529.88,-619.02 596.45,-655.86 637.37,-678.51"/>
<polygon fill="#ff3528" stroke="#ff3528" stroke-width="2" points="635.74,-681.61 646.19,-683.39 639.13,-675.48 635.74,-681.61"/>
</a>
</g>
<text text-anchor="middle" x="624.1" y="-637.3" font-family="Times,serif" font-size="14.00">(0.62/0.62)</text>
</g>
<!-- 16&#45;&gt;15 -->
<g id="edge15" class="edge">
<title>16&#45;&gt;15</title>
<g id="a_edge15"><a xlink:title="edge: 64&#10;ig edge: 14&#10;desc: sent&#45;root[0]&#10;capacity: ∞&#10;flow: 0.94">
<path fill="none" stroke="#1a0086" stroke-width="7" d="M449.54,-600.39C443.25,-607.58 436.87,-616.54 433.6,-626 428.62,-640.38 429.92,-657.27 432.67,-671.07"/>
<polygon fill="#1a0086" stroke="#1a0086" stroke-width="7" points="426.74,-672.6 434.98,-680.94 438.67,-669.81 426.74,-672.6"/>
</a>
</g>
<text text-anchor="middle" x="465.6" y="-644.8" font-family="Times,serif" font-size="14.00">sent&#45;root[0]</text>
<text text-anchor="middle" x="465.6" y="-629.8" font-family="Times,serif" font-size="14.00">(∞/0.94)</text>
</g>
<!-- 17 -->
<g id="node18" class="node">
<title>17</title>
<g id="a_node18"><a xlink:title="vertex: 50&#10;ig vertex: 17&#10;type: concept&#10;norm: garden&#10;pos_: NOUN&#10;tag_: NN">
<ellipse fill="#c7ecc6" stroke="black" cx="402.6" cy="-235" rx="46.29" ry="18"/>
<text text-anchor="middle" x="402.6" y="-231.3" font-family="Times,serif" font-size="14.00">g0/garden</text>
</a>
</g>
</g>
<!-- 17&#45;&gt;8 -->
<g id="edge28" class="edge">
<title>17&#45;&gt;8</title>
<g id="a_edge28"><a xlink:title="edge: 74&#10;ig edge: 27&#10;desc: 0.63/0.63&#10;capacity: 0.63&#10;flow: 0.63">
<path fill="none" stroke="#ff3528" stroke-width="2" d="M386.69,-252.07C380.05,-259.48 372.71,-268.68 367.6,-278 359.9,-292.03 354.32,-309.02 350.58,-322.98"/>
<polygon fill="#ff3528" stroke="#ff3528" stroke-width="2" points="347.11,-322.41 348.08,-332.96 353.9,-324.11 347.11,-322.41"/>
</a>
</g>
<text text-anchor="middle" x="398.1" y="-289.3" font-family="Times,serif" font-size="14.00">(0.63/0.63)</text>
</g>
<!-- 17&#45;&gt;16 -->
<g id="edge16" class="edge">
<title>17&#45;&gt;16</title>
<g id="a_edge16"><a xlink:title="edge: 59&#10;ig edge: 15&#10;desc: :location&#10;capacity: ∞&#10;flow: 0.63">
<path fill="none" stroke="#1a0086" stroke-width="7" d="M419.34,-252.08C425.85,-259.36 432.68,-268.45 436.6,-278 475.78,-373.47 472.73,-499.45 469.01,-554.4"/>
<polygon fill="#1a0086" stroke="#1a0086" stroke-width="7" points="462.88,-554.28 468.25,-564.71 475.09,-555.19 462.88,-554.28"/>
</a>
</g>
<text text-anchor="middle" x="491.6" y="-412.8" font-family="Times,serif" font-size="14.00">:location</text>
<text text-anchor="middle" x="491.6" y="-397.8" font-family="Times,serif" font-size="14.00">(∞/0.63)</text>
</g>
<!-- 18 -->
<g id="node19" class="node">
<title>18</title>
<g id="a_node19"><a xlink:title="vertex: 52&#10;ig vertex: 18&#10;type: concept&#10;norm: dog&#10;pos_: NOUN&#10;tag_: NN">
<ellipse fill="#c7ecc6" stroke="black" cx="355.6" cy="-467" rx="35.19" ry="18"/>
<text text-anchor="middle" x="355.6" y="-463.3" font-family="Times,serif" font-size="14.00">d0/dog</text>
</a>
</g>
</g>
<!-- 18&#45;&gt;4 -->
<g id="edge25" class="edge">
<title>18&#45;&gt;4</title>
<g id="a_edge25"><a xlink:title="edge: 71&#10;ig edge: 24&#10;desc: 0.62/0.62&#10;capacity: 0.62&#10;flow: 0.62">
<path fill="none" stroke="#ff3528" stroke-width="2" d="M333.78,-481.3C300.42,-501.64 236.64,-540.52 198.84,-563.56"/>
<polygon fill="#ff3528" stroke="#ff3528" stroke-width="2" points="196.99,-560.59 190.27,-568.78 200.63,-566.57 196.99,-560.59"/>
</a>
</g>
<text text-anchor="middle" x="314.1" y="-521.3" font-family="Times,serif" font-size="14.00">(0.62/0.62)</text>
</g>
<!-- 18&#45;&gt;12 -->
<g id="edge30" class="edge">
<title>18&#45;&gt;12</title>
<g id="a_edge30"><a xlink:title="edge: 76&#10;ig edge: 29&#10;desc: 0.7/0.7&#10;capacity: 0.7&#10;flow: 0.7">
<path fill="none" stroke="#ff3528" stroke-width="2" d="M390.82,-468.17C439.32,-469.7 528.28,-477.23 595.6,-510 619.27,-521.53 641.13,-542.18 655.99,-558.43"/>
<polygon fill="#ff3528" stroke="#ff3528" stroke-width="2" points="653.45,-560.83 662.7,-565.98 658.68,-556.18 653.45,-560.83"/>
</a>
</g>
<text text-anchor="middle" x="659.6" y="-521.3" font-family="Times,serif" font-size="14.00">(0.7/0.7)</text>
</g>
<!-- 18&#45;&gt;13 -->
<g id="edge32" class="edge">
<title>18&#45;&gt;13</title>
<g id="a_edge32"><a xlink:title="edge: 78&#10;ig edge: 31&#10;desc: 0.36/0.36&#10;capacity: 0.36&#10;flow: 0.36">
<path fill="none" stroke="#fe675d" stroke-width="2" d="M390.11,-470.39C483.8,-477.03 738.25,-496.12 773.6,-510 801.66,-521.02 828.55,-542.82 846.51,-559.56"/>
<polygon fill="#fe675d" stroke="#fe675d" stroke-width="2" points="844.47,-562.44 854.11,-566.83 849.31,-557.39 844.47,-562.44"/>
</a>
</g>
<text text-anchor="middle" x="853.1" y="-521.3" font-family="Times,serif" font-size="14.00">(0.36/0.36)</text>
</g>
<!-- 18&#45;&gt;16 -->
<g id="edge17" class="edge">
<title>18&#45;&gt;16</title>
<g id="a_edge17"><a xlink:title="edge: 60&#10;ig edge: 16&#10;desc: :ARG0&#10;capacity: ∞&#10;flow: 1.02">
<path fill="none" stroke="#1a0086" stroke-width="7" d="M358.02,-484.99C361.06,-500.89 367.69,-524.44 381.6,-540 391.75,-551.37 405.69,-560.01 419.34,-566.41"/>
<polygon fill="#1a0086" stroke="#1a0086" stroke-width="7" points="417.08,-572.1 428.69,-570.48 421.97,-560.87 417.08,-572.1"/>
</a>
</g>
<text text-anchor="middle" x="405.1" y="-528.8" font-family="Times,serif" font-size="14.00">:ARG0</text>
<text text-anchor="middle" x="405.1" y="-513.8" font-family="Times,serif" font-size="14.00">(∞/1.02)</text>
</g>
<!-- 19 -->
<g id="node20" class="node">
<title>19</title>
<g id="a_node20"><a xlink:title="vertex: 54&#10;ig vertex: 19&#10;type: concept&#10;description: p0/person">
<ellipse fill="#c7ecc6" stroke="black" cx="202.6" cy="-351" rx="45.49" ry="18"/>
<text text-anchor="middle" x="202.6" y="-347.3" font-family="Times,serif" font-size="14.00">p0/person</text>
</a>
</g>
</g>
<!-- 19&#45;&gt;5 -->
<g id="edge26" class="edge">
<title>19&#45;&gt;5</title>
<g id="a_edge26"><a xlink:title="edge: 72&#10;ig edge: 25&#10;desc: 0.81/0.81&#10;capacity: 0.81&#10;flow: 0.81">
<path fill="none" stroke="#fe1b0d" stroke-width="3" d="M184.11,-367.61C160.81,-387.29 120.61,-421.23 94.06,-443.65"/>
<polygon fill="#fe1b0d" stroke="#fe1b0d" stroke-width="3" points="91.68,-441.08 86.29,-450.21 96.19,-446.43 91.68,-441.08"/>
</a>
</g>
<text text-anchor="middle" x="182.1" y="-405.3" font-family="Times,serif" font-size="14.00">(0.81/0.81)</text>
</g>
<!-- 19&#45;&gt;18 -->
<g id="edge19" class="edge">
<title>19&#45;&gt;18</title>
<g id="a_edge19"><a xlink:title="edge: 61&#10;ig edge: 18&#10;desc: :poss&#10;capacity: ∞&#10;flow: 0.8">
<path fill="none" stroke="#1a0086" stroke-width="7" d="M238.45,-362.11C258.42,-368.93 282.93,-379.38 301.6,-394 317.8,-406.68 331.62,-425.37 341.22,-440.52"/>
<polygon fill="#1a0086" stroke="#1a0086" stroke-width="7" points="336.21,-444.06 346.64,-449.42 346.67,-437.69 336.21,-444.06"/>
</a>
</g>
<text text-anchor="middle" x="348.6" y="-412.8" font-family="Times,serif" font-size="14.00">:poss</text>
<text text-anchor="middle" x="348.6" y="-397.8" font-family="Times,serif" font-size="14.00">(∞/0.8)</text>
</g>
<!-- 20 -->
<g id="node21" class="node">
<title>20</title>
<g id="a_node21"><a xlink:title="vertex: 56&#10;ig vertex: 20&#10;type: concept&#10;description: n0/name">
<ellipse fill="#c7ecc6" stroke="black" cx="181.6" cy="-235" rx="41.69" ry="18"/>
<text text-anchor="middle" x="181.6" y="-231.3" font-family="Times,serif" font-size="14.00">n0/name</text>
</a>
</g>
</g>
<!-- 20&#45;&gt;6 -->
<g id="edge27" class="edge">
<title>20&#45;&gt;6</title>
<g id="a_edge27"><a xlink:title="edge: 73&#10;ig edge: 26&#10;desc: 0.81/0.81&#10;capacity: 0.81&#10;flow: 0.81">
<path fill="none" stroke="#fe1b0d" stroke-width="3" d="M157.69,-249.93C145.07,-257.65 129.56,-267.75 116.6,-278 97.67,-292.97 78.06,-311.94 63.64,-326.65"/>
<polygon fill="#fe1b0d" stroke="#fe1b0d" stroke-width="3" points="61.05,-324.3 56.6,-333.91 66.07,-329.17 61.05,-324.3"/>
</a>
</g>
<text text-anchor="middle" x="147.1" y="-289.3" font-family="Times,serif" font-size="14.00">(0.81/0.81)</text>
</g>
<!-- 20&#45;&gt;19 -->
<g id="edge20" class="edge">
<title>20&#45;&gt;19</title>
<g id="a_edge20"><a xlink:title="edge: 62&#10;ig edge: 19&#10;desc: :name&#10;capacity: ∞&#10;flow: 0.8">
<path fill="none" stroke="#1a0086" stroke-width="7" d="M184.79,-253.31C188.2,-271.83 193.65,-301.45 197.63,-323.03"/>
<polygon fill="#1a0086" stroke="#1a0086" stroke-width="7" points="191.61,-324.17 199.45,-332.9 203.66,-321.95 191.61,-324.17"/>
</a>
</g>
<text text-anchor="middle" x="213.6" y="-296.8" font-family="Times,serif" font-size="14.00">:name</text>
<text text-anchor="middle" x="213.6" y="-281.8" font-family="Times,serif" font-size="14.00">(∞/0.8)</text>
</g>
<!-- 21 -->
<g id="node22" class="node">
<title>21</title>
<g id="a_node22"><a xlink:title="vertex: 58&#10;ig vertex: 21&#10;type: concept&#10;norm: cat&#10;pos_: NOUN&#10;tag_: NN">
<ellipse fill="#c7ecc6" stroke="black" cx="663.6" cy="-467" rx="31.7" ry="18"/>
<text text-anchor="middle" x="663.6" y="-463.3" font-family="Times,serif" font-size="14.00">c1/cat</text>
</a>
</g>
</g>
<!-- 21&#45;&gt;12 -->
<g id="edge31" class="edge">
<title>21&#45;&gt;12</title>
<g id="a_edge31"><a xlink:title="edge: 77&#10;ig edge: 30&#10;desc: 0.48/0.48&#10;capacity: 0.48&#10;flow: 0.48">
<path fill="none" stroke="#ff4e43" stroke-width="2" d="M680.19,-482.66C687.31,-490.05 694.85,-499.65 698.6,-510 703.14,-522.54 701.9,-527.08 698.6,-540 697.15,-545.64 694.78,-551.33 692.09,-556.63"/>
<polygon fill="#ff4e43" stroke="#ff4e43" stroke-width="2" points="688.88,-555.21 687.05,-565.65 694.99,-558.63 688.88,-555.21"/>
</a>
</g>
<text text-anchor="middle" x="731.1" y="-521.3" font-family="Times,serif" font-size="14.00">(0.48/0.48)</text>
</g>
<!-- 21&#45;&gt;13 -->
<g id="edge33" class="edge">
<title>21&#45;&gt;13</title>
<g id="a_edge33"><a xlink:title="edge: 79&#10;ig edge: 32&#10;desc: 0.74/0.74&#10;capacity: 0.74&#10;flow: 0.74">
<path fill="none" stroke="#ff3528" stroke-width="2" d="M695.8,-468.08C760.08,-469 900.71,-475.05 930.6,-510 939.26,-520.13 936.84,-528.22 930.6,-540 924.55,-551.4 913.88,-560.27 903.07,-566.86"/>
<polygon fill="#ff3528" stroke="#ff3528" stroke-width="2" points="901.11,-563.95 894.07,-571.87 904.51,-570.07 901.11,-563.95"/>
</a>
</g>
<text text-anchor="middle" x="966.1" y="-521.3" font-family="Times,serif" font-size="14.00">(0.74/0.74)</text>
</g>
<!-- 21&#45;&gt;16 -->
<g id="edge18" class="edge">
<title>21&#45;&gt;16</title>
<g id="a_edge18"><a xlink:title="edge: 63&#10;ig edge: 17&#10;desc: :ARG1&#10;capacity: ∞&#10;flow: 1.21">
<path fill="none" stroke="#1a0086" stroke-width="7" d="M634.18,-474.16C608.21,-480.47 570.02,-491.94 540.6,-510 519.78,-522.77 500.16,-542.35 486.36,-557.86"/>
<polygon fill="#1a0086" stroke="#1a0086" stroke-width="7" points="481.62,-553.98 479.7,-565.55 490.88,-562 481.62,-553.98"/>
</a>
</g>
<text text-anchor="middle" x="564.1" y="-528.8" font-family="Times,serif" font-size="14.00">:ARG1</text>
<text text-anchor="middle" x="564.1" y="-513.8" font-family="Times,serif" font-size="14.00">(∞/1.21)</text>
</g>
<!-- 22 -->
<g id="node23" class="node">
<title>22</title>
<g id="a_node23"><a xlink:title="vertex: 66&#10;ig vertex: 22&#10;type: attribute&#10;ent_: PERSON&#10;norm: Joe&#10;pos_: PROPN&#10;tag_: NNP">
<path fill="#c7ecc6" stroke="black" d="M196.6,-137C196.6,-137 166.6,-137 166.6,-137 160.6,-137 154.6,-131 154.6,-125 154.6,-125 154.6,-113 154.6,-113 154.6,-107 160.6,-101 166.6,-101 166.6,-101 196.6,-101 196.6,-101 202.6,-101 208.6,-107 208.6,-113 208.6,-113 208.6,-125 208.6,-125 208.6,-131 202.6,-137 196.6,-137"/>
<text text-anchor="middle" x="181.6" y="-115.3" font-family="Times,serif" font-size="14.00">Joe</text>
</a>
</g>
</g>
<!-- 22&#45;&gt;9 -->
<g id="edge24" class="edge">
<title>22&#45;&gt;9</title>
<g id="a_edge24"><a xlink:title="edge: 70&#10;ig edge: 23&#10;desc: 0.8/0.8&#10;capacity: 0.8&#10;flow: 0.8">
<path fill="none" stroke="#fe1b0d" stroke-width="3" d="M155.75,-137.17C144.99,-144.56 132.5,-153.44 121.6,-162 102.31,-177.14 81.56,-195.38 65.76,-209.71"/>
<polygon fill="#fe1b0d" stroke="#fe1b0d" stroke-width="3" points="63.01,-207.48 57.99,-216.81 67.73,-212.65 63.01,-207.48"/>
</a>
</g>
<text text-anchor="middle" x="145.6" y="-173.3" font-family="Times,serif" font-size="14.00">(0.8/0.8)</text>
</g>
<!-- 22&#45;&gt;20 -->
<g id="edge21" class="edge">
<title>22&#45;&gt;20</title>
<g id="a_edge21"><a xlink:title="edge: 67&#10;ig edge: 20&#10;desc: :op1&#10;capacity: ∞&#10;flow: 0.8">
<path fill="none" stroke="#1a0086" stroke-width="7" d="M181.6,-137.31C181.6,-155.75 181.6,-185.18 181.6,-206.74"/>
<polygon fill="#1a0086" stroke="#1a0086" stroke-width="7" points="175.47,-206.9 181.6,-216.9 187.72,-206.9 175.47,-206.9"/>
</a>
</g>
<text text-anchor="middle" x="201.6" y="-180.8" font-family="Times,serif" font-size="14.00">:op1</text>
<text text-anchor="middle" x="201.6" y="-165.8" font-family="Times,serif" font-size="14.00">(∞/0.8)</text>
</g>
<!-- 23 -->
<g id="node24" class="node">
<title>23</title>
<g id="a_node24"><a xlink:title="vertex: 80&#10;ig vertex: 23&#10;type: control&#10;description: S">
<ellipse fill="#ff69b4" stroke="black" cx="402.6" cy="-18" rx="18" ry="18"/>
<text text-anchor="middle" x="402.6" y="-14.3" font-family="Times,serif" font-size="14.00">S</text>
</a>
</g>
</g>
<!-- 23&#45;&gt;17 -->
<g id="edge35" class="edge">
<title>23&#45;&gt;17</title>
<g id="a_edge35"><a xlink:title="edge: 83&#10;ig edge: 34&#10;desc: ∞/0.63&#10;capacity: ∞&#10;flow: 0.63">
<path fill="none" stroke="#1a0086" stroke-width="7" d="M402.6,-36.23C402.6,-73.51 402.6,-161.92 402.6,-206.82"/>
<polygon fill="#1a0086" stroke="#1a0086" stroke-width="7" points="396.47,-206.99 402.6,-216.99 408.72,-206.99 396.47,-206.99"/>
</a>
</g>
<text text-anchor="middle" x="426.1" y="-115.3" font-family="Times,serif" font-size="14.00">(∞/0.63)</text>
</g>
<!-- 23&#45;&gt;21 -->
<g id="edge36" class="edge">
<title>23&#45;&gt;21</title>
<g id="a_edge36"><a xlink:title="edge: 84&#10;ig edge: 35&#10;desc: ∞/1.21&#10;capacity: ∞&#10;flow: 1.21">
<path fill="none" stroke="#1a0086" stroke-width="7" d="M420.62,-20.1C467.68,-24.04 590.6,-41.64 590.6,-118 590.6,-118 590.6,-118 590.6,-352 590.6,-388.84 617.97,-423.31 639.19,-444.49"/>
<polygon fill="#1a0086" stroke="#1a0086" stroke-width="7" points="635.21,-449.17 646.67,-451.68 643.7,-440.33 635.21,-449.17"/>
</a>
</g>
<text text-anchor="middle" x="614.1" y="-231.3" font-family="Times,serif" font-size="14.00">(∞/1.21)</text>
</g>
<!-- 23&#45;&gt;22 -->
<g id="edge37" class="edge">
<title>23&#45;&gt;22</title>
<g id="a_edge37"><a xlink:title="edge: 85&#10;ig edge: 36&#10;desc: ∞/5.97&#10;capacity: ∞&#10;flow: 5.97">
<path fill="none" stroke="#1a0086" stroke-width="7" d="M386.35,-26.28C351.11,-42.06 266.96,-79.76 218.21,-101.6"/>
<polygon fill="#1a0086" stroke="#1a0086" stroke-width="7" points="215.58,-96.07 208.96,-105.74 220.59,-107.25 215.58,-96.07"/>
</a>
</g>
<text text-anchor="middle" x="328.1" y="-64.8" font-family="Times,serif" font-size="14.00">(∞/5.97)</text>
</g>
</g>
</svg>
